<?xml version="1.0" encoding="utf-8"?>
<!-- Generator: Adobe Illustrator 23.1.1, SVG Export Plug-In . SVG Version: 6.00 Build 0)  -->
<svg version="1.1" id="Layer_1" xmlns="http://www.w3.org/2000/svg" xmlns:xlink="http://www.w3.org/1999/xlink" x="0px" y="0px"
	 viewBox="0 0 1200 400" style="enable-background:new 0 0 1200 400;" xml:space="preserve">
<style type="text/css">
	.st0{fill:#FFFFFF;}
	.st1{fill:#F23030;stroke:#F23030;stroke-width:4;stroke-miterlimit:10;}
</style>
<path class="st0" d="M216.27,394.14L170.8,274.37h-0.72L115.3,381.25h-3.22l-54.6-106.88h-0.54L3.94,394.14H0l52.81-124.07h6.8
	l54.07,105.81l54.07-105.81h6.8l45.47,124.07H216.27z"/>
<path class="st0" d="M381.16,394.14l-14.68-35.63h-71.97l-15.22,35.63h-4.12l53.89-124.07h4.83l51.38,124.07H381.16z M330.85,272.4
	l-35.09,82.71h69.46L330.85,272.4z"/>
<path class="st0" d="M439.88,394.14V270.07h72.51v3.58h-68.57v54.25h64.45v3.58h-64.45v59.08h71.25v3.58H439.88L439.88,394.14z"/>
<path class="st0" d="M644.52,364.24c0,5.19-1.07,10.03-3.04,14.14c-1.97,4.12-4.83,7.7-8.06,10.56c-3.4,2.86-7.34,5.01-12,6.45
	c-4.65,1.43-9.49,2.15-14.5,2.15c-7.7,0-14.68-1.43-21.13-4.12c-6.45-2.69-11.64-6.45-15.93-11.1l3.04-2.69
	c4.48,4.83,9.67,8.41,15.58,10.74c5.91,2.33,12,3.58,18.26,3.58c4.48,0,8.95-0.72,12.89-1.97c4.12-1.43,7.7-3.22,10.92-5.73
	c3.22-2.51,5.55-5.55,7.52-9.31c1.97-3.76,2.69-7.88,2.69-12.71c0-4.83-0.9-8.77-3.04-12.17c-1.97-3.22-4.48-6.09-7.7-8.41
	c-3.22-2.33-6.8-4.3-10.74-5.91c-3.94-1.61-8.06-3.04-12.17-4.3c-5.19-1.61-9.85-3.4-14.14-5.19c-4.3-1.79-7.88-3.94-11.1-6.62
	c-3.22-2.69-5.55-5.73-7.16-9.49c-1.79-3.76-2.51-8.06-2.51-13.43c0-5.19,1.07-9.67,3.04-13.79c1.97-4.12,4.83-7.34,8.41-10.2
	c3.58-2.69,7.52-4.83,12.17-6.27s9.49-2.15,14.68-2.15c6.27,0,12.35,1.25,17.9,3.58c5.73,2.33,10.38,5.73,13.96,10.2l-3.04,2.69
	c-3.22-4.12-7.52-7.34-12.53-9.49c-5.01-2.33-10.56-3.4-16.47-3.4c-4.12,0-8.41,0.54-12.35,1.79c-3.94,1.07-7.7,2.86-10.92,5.37
	c-3.22,2.33-5.91,5.37-7.88,8.95c-1.97,3.58-3.04,7.88-3.04,12.71c0,4.83,0.9,8.77,2.69,12.17c1.79,3.4,4.12,6.09,6.98,8.59
	c2.86,2.33,6.27,4.3,9.85,5.73c3.76,1.61,7.52,2.86,11.28,4.3c5.19,1.79,10.2,3.58,14.68,5.37c4.48,1.79,8.59,3.94,12,6.62
	c3.4,2.51,6.09,5.73,8.06,9.31C643.44,354.57,644.52,359.05,644.52,364.24z"/>
<path class="st0" d="M745.13,273.47v120.67h-3.94V273.47h-42.25v-3.58h88.26v3.58H745.13L745.13,273.47z"/>
<path class="st0" d="M912.53,394.14l-37.6-62.66h-29v62.66h-3.94V270.07h34.37c4.65,0,9.13,0.36,13.79,1.25
	c4.65,0.9,8.77,2.33,12.53,4.65s6.62,5.37,8.95,9.31c2.33,3.94,3.58,9.13,3.58,15.4c0,5.91-1.07,10.74-3.4,14.5
	c-2.15,3.76-5.01,6.98-8.59,9.31c-3.58,2.33-7.34,4.12-11.64,5.19c-4.3,1.07-8.41,1.61-12.53,1.61l37.78,62.66L912.53,394.14
	L912.53,394.14L912.53,394.14z M911.46,300.69c0-5.37-1.07-9.85-3.22-13.43c-2.15-3.58-4.83-6.45-8.41-8.41
	c-3.4-1.97-7.34-3.4-12-4.3c-4.48-0.9-9.13-1.25-13.79-1.25h-28.47v54.78h30.26c11.46,0,20.23-2.33,26.14-7.16
	C908.59,316.26,911.46,309.46,911.46,300.69z"/>
<g>
	<g>
		<path class="st1" d="M1029.08,394.14c-35.99,0-65.17-29.36-65.17-65.17c0-35.99,29.36-65.17,65.17-65.17
			c35.99,0,65.17,29.36,65.17,65.17S1065.07,394.14,1029.08,394.14z M1029.08,272.04c-31.33,0-56.75,25.42-56.75,56.75
			s25.42,56.75,56.75,56.75c31.33,0,56.75-25.42,56.75-56.75C1085.83,297.46,1060.41,272.04,1029.08,272.04z"/>
	</g>
	<g>
		<path class="st1" d="M1086.73,298l-0.72-280.54l3.22-0.72c3.94-1.07,8.06-0.18,12.35,2.33c17.37,10.92,37.95,57.65,61.05,138.93
			c17.01,59.98,29.36,117.62,29.54,118.16l-8.24,1.79c-13.61-63.38-55.5-232.21-86.83-251.72c-0.9-0.54-1.79-0.9-2.69-1.25v303.82"
			/>
	</g>
</g>
</svg>
